PathFileType	4	(X/Y/Z)	Patient4_TMGait_0pt4_03_left_42.trc.trc
DataRate	CameraRate	NumFrames	NumMarkers	Units	OrigDataRate	OrigDataStartFrame	OrigNumFrames
74.468085106383	74.468085106383	4	33	mm	74.468085106383	53	       141
Frame#	Time	Sacral			L.Shoulder			Chest			R.Shoulder			Neck			R.ASIS			L.ASIS			R.Thigh.Superior			R.Thigh.Lateral			R.Thigh.Inferior			R.Patella			L.Thigh.Superior			L.Thigh.Lateral			L.Thigh.Inferior			L.Patella			L.Shank.Superior			L.Shank.Lateral			L.Shank.Inferior			R.Shank.Superior			R.Shank.Lateral			R.Shank.Inferior			R.Heel			R.Midfoot.Superior			R.Midfoot.Lateral			R.Toe			L.Heel			L.Midfoot.Lateral			L.Midfoot.Superior			L.Toe			L.Elbow			L.Wrist			R.Elbow			R.Wrist			
		X1	Y1	Z1	X2	Y2	Z2	X3	Y3	Z3	X4	Y4	Z4	X5	Y5	Z5	X6	Y6	Z6	X7	Y7	Z7	X8	Y8	Z8	X9	Y9	Z9	X10	Y10	Z10	X11	Y11	Z11	X12	Y12	Z12	X13	Y13	Z13	X14	Y14	Z14	X15	Y15	Z15	X16	Y16	Z16	X17	Y17	Z17	X18	Y18	Z18	X19	Y19	Z19	X20	Y20	Z20	X21	Y21	Z21	X22	Y22	Z22	X23	Y23	Z23	X24	Y24	Z24	X25	Y25	Z25	X26	Y26	Z26	X27	Y27	Z27	X28	Y28	Z28	X29	Y29	Z29	X30	Y30	Z30	X31	Y31	Z31	X32	Y32	Z32	X33	Y33	Z33	

53	56.338285714286	953.848719589779	1002.501238510993	424.744368675891	1118.113603828011	1433.852753363336	226.019106637047	1224.439874739710	1372.528355433831	387.561524370617	1141.267656869967	1444.683210035443	562.317442937962	1099.936546370316	1498.924233178422	381.936206490583	1188.266927178933	952.578071173133	536.083751297844	1166.741903745895	966.685830578185	262.348628895043	1279.609492107182	786.607429083646	511.196351030900	1247.246661596241	667.379907618551	593.133773971352	1338.589973759471	630.303891958155	514.744582470658	1363.534746440173	519.889752015114	541.530183827375	1220.989539327411	753.969090511306	290.665635287690	1131.649607958099	636.251021459414	235.069157394489	1218.630184673242	560.625238059401	295.565931136747	1219.271681116375	491.659046071545	306.646947265676	1193.164499140665	418.695258402455	300.285890317556	1103.227370480343	303.214066517501	252.124001279276	1154.524017505938	192.971590716007	324.664747997389	1291.275404312814	441.742446466074	553.550010179417	1173.316433343464	400.335159837106	620.059787249215	1161.002371873893	288.908841319928	575.835405547479	964.778168530377	230.975506524348	557.708742994265	1128.535020769755	157.933633970116	591.032986912522	1020.873701203348	164.790686322947	628.274361364029	1185.385188632755	39.388493188476	612.379977055858	1028.323454575446	38.750831691906	372.949152910192	1099.069716224332	35.353416490973	289.306041371219	1182.941637991095	96.774348097703	314.159401583763	1310.714014471800	45.658677371622	280.492313804931	1139.423587332997	1082.012810728620	105.132735939325	1304.001825157169	878.327872624253	81.720387746789	1129.272497149985	1094.488272610186	681.927488159862	1261.833423776400	869.860588238813	664.936452673716	
54	56.351714285714	953.102775025279	1003.201533994678	423.119857825491	1119.141737688155	1434.857267628568	225.459138356386	1224.189673451857	1373.124028082318	387.682851533744	1139.652922269557	1444.956014541323	561.935314847846	1099.881132975858	1499.581846385680	381.524729682337	1187.115728943853	953.687256460634	535.544044629927	1166.379505022051	966.912338557108	261.741339180217	1279.155156690714	788.851568368012	509.877751339890	1248.687111129854	669.642143507629	592.469506505591	1339.266544966017	632.939290445090	513.157812250614	1366.003834750907	523.525880283100	540.399605887432	1219.006038786318	753.434880174717	290.405369049611	1128.466364768517	636.464259393857	234.486427089978	1214.644737215171	560.072952127409	295.088524059608	1214.625744433153	491.217280099352	306.223866388319	1188.405336947919	418.521280722512	299.827638818522	1098.122561252848	303.208736567118	251.677100285791	1149.203854422783	192.868105495956	324.348872031142	1295.832531363422	443.768783975804	552.892376857263	1179.491236789034	398.507536359861	619.757146402103	1170.905893576158	286.555878996514	575.718908583971	976.474651522843	220.834902988541	558.238337671673	1143.218687547611	154.942596434629	590.994207944764	1035.588166675219	157.331092273463	628.772827997822	1205.265385118100	39.399393927083	612.693233911637	1022.879208177361	38.773329712997	372.908894196008	1093.650594355430	35.333484923167	289.259113726551	1177.543877555991	96.723971028877	314.050395670131	1305.321529124154	45.577206156099	280.450096005795	1143.520210799337	1083.862581237683	103.024754566431	1315.768943811301	886.608439561809	79.197451879106	1119.364914756271	1095.212993591446	681.281761329884	1237.680539064912	861.930939359146	668.762317905243	
55	56.365142857143	952.305988654774	1003.902742689515	421.612288731794	1120.377156570982	1435.724803963806	225.036217197014	1224.085236087609	1373.557342632083	387.958451109141	1138.199726386671	1445.174359675468	561.659705006845	1099.987701902795	1500.146760090194	381.218328835085	1185.880396378059	954.590680302161	535.165830576565	1165.957190937720	967.048524586509	261.314268750694	1278.365826578841	790.613721827956	508.799639187187	1249.434536744045	671.420756134369	591.990904102232	1339.157632603835	634.867786867733	511.819682598272	1367.472117955083	526.698044267611	539.456996500847	1216.893408013532	752.893648716315	290.306005916669	1125.217377169626	636.680689238405	233.947447177502	1210.557487200422	559.530047436789	294.666087639849	1209.861736165077	490.782607767514	305.817973146468	1183.554814407963	418.356562770658	299.375294379985	1092.942024078659	303.203129328701	251.235659081123	1143.863984583053	192.780322320344	324.036785357119	1299.777732734744	445.276092111054	552.386207706211	1185.573690648986	395.616482337818	619.699364401653	1181.252928167417	283.285793812698	575.773575532714	989.270092245460	208.936483847002	559.119705622509	1159.056607029028	151.173676590222	591.159352617544	1051.676963490889	148.567163431146	629.538503301241	1226.733846936749	39.134249953328	613.069359198664	1017.439699141092	38.794009377454	372.870739221148	1088.228270715577	35.309422823333	289.213481432764	1172.144469653961	96.672923153131	313.944017349404	1299.924311022245	45.503036831817	280.413322371930	1147.123551196466	1085.525481694284	101.187341354434	1326.927803553262	895.139702267088	76.936296043145	1109.538858845571	1096.192858814135	680.806672046086	1213.787169790647	855.675403903029	672.383759801421	
56	56.378571428571	951.460842705340	1004.585974061498	420.221234127214	1121.805669137106	1436.421797195305	224.751844670118	1224.126125061491	1373.804315362984	388.384085258108	1136.934737746733	1445.322695378262	561.494770666404	1100.261378865210	1500.599764111400	381.013364341873	1184.563701725863	955.256081923867	534.944060381591	1165.518227981627	967.111978656321	261.041117690180	1277.223845078373	791.831918064349	508.003392257168	1249.371916807774	672.650396978839	591.704364197117	1338.210771360255	636.030602350566	510.798373135389	1367.852236276618	529.346371000666	538.718615973938	1214.676466504077	752.338718915290	290.320948471488	1121.928729826421	636.886920609515	233.448342155948	1206.403721855606	558.991425862639	294.287490409318	1205.025947781587	490.353933286775	305.424214037174	1178.650799745664	418.192439564029	298.931096687437	1087.720668941926	303.193847438309	250.801088357146	1138.518707374907	192.701014998138	323.732529427185	1303.047792958995	446.277701947797	552.036814637670	1191.606323565054	391.753087274748	619.926339799207	1192.041383669203	279.271722481580	576.004290292179	1003.332367715707	195.588571373010	560.391767399710	1176.034066821056	146.893525580094	591.534027132365	1069.224174283293	138.817367911742	630.579193195245	1249.628771251150	38.846406127288	613.429794477544	1012.008986820615	38.810754529458	372.833299646318	1082.805065641365	35.281553976652	289.168099627530	1166.745418910900	96.620001777365	313.842326994229	1294.524839565283	45.431494298078	280.381829381104	1150.279057057031	1086.952026340892	99.616563672028	1337.440962140721	903.834301579471	74.923312757636	1099.780121708009	1097.413513633888	680.501352679475	1190.383783719630	851.014721985136	675.773545247493	
